<svg width="256" height="64" viewBox="0 0 256 64" fill="none" xmlns="http://www.w3.org/2000/svg">
<path d="M104.367 13.0244C101.956 13.0244 100 10.9783 100 8.49391C100 5.97294 101.956 4 104.367 4C106.813 4 108.769 5.97294 108.769 8.49391C108.769 10.9783 106.813 13.0244 104.367 13.0244ZM104.367 57.9635C102.096 57.9635 100.594 56.3194 100.594 53.7984V22.341C100.594 19.7835 102.096 18.1394 104.367 18.1394C106.638 18.1394 108.14 19.7835 108.14 22.341V53.7984C108.14 56.3194 106.638 57.9635 104.367 57.9635Z" fill="white"/>
<path d="M118.204 57.9635C115.968 57.9635 114.43 56.3924 114.43 53.7984V22.1218C114.43 19.7104 115.828 18.1394 118.029 18.1394C120.195 18.1394 121.697 19.7104 121.697 22.1583V25.1908H121.872C123.863 20.8065 127.707 18.1759 133.366 18.1759C141.472 18.1759 146.118 23.5832 146.118 32.3884V53.7984C146.118 56.3924 144.546 57.9635 142.31 57.9635C140.109 57.9635 138.537 56.3924 138.537 53.7984V33.9229C138.537 28.1502 135.952 24.9716 130.711 24.9716C125.401 24.9716 121.977 28.9175 121.977 34.8728V53.7984C121.977 56.3924 120.405 57.9635 118.204 57.9635Z" fill="white"/>
<path d="M166.069 57.9635C163.379 57.9635 161.911 56.7943 160.863 53.9445L149.963 23.9486C149.718 23.2544 149.544 22.4871 149.544 21.7564C149.544 19.5643 151.151 18.1394 153.352 18.1394C155.099 18.1394 156.287 19.1258 156.915 21.2449L166.034 49.5602H166.174L175.292 21.1719C175.921 19.1258 177.109 18.1394 178.821 18.1394C180.987 18.1394 182.524 19.6373 182.524 21.7199C182.524 22.4141 182.385 23.1813 182.14 23.839L171.24 53.9445C170.261 56.7212 168.654 57.9635 166.069 57.9635Z" fill="white"/>
<path d="M200.938 58C190.422 58 183.504 50.4371 183.504 38.0514C183.504 25.7023 190.456 18.1394 200.938 18.1394C211.419 18.1394 218.371 25.7023 218.371 38.0514C218.371 50.4371 211.454 58 200.938 58ZM200.938 51.4966C206.877 51.4966 210.685 46.6008 210.685 38.0514C210.685 29.5386 206.842 24.6428 200.938 24.6428C195.033 24.6428 191.19 29.5386 191.19 38.0514C191.19 46.6008 195.033 51.4966 200.938 51.4966Z" fill="white"/>
<path d="M238.566 58C228.05 58 221.133 50.4371 221.133 38.0514C221.133 25.7023 228.085 18.1394 238.566 18.1394C249.048 18.1394 256 25.7023 256 38.0514C256 50.4371 249.082 58 238.566 58ZM238.566 51.4966C244.506 51.4966 248.314 46.6008 248.314 38.0514C248.314 29.5386 244.471 24.6428 238.566 24.6428C232.662 24.6428 228.819 29.5386 228.819 38.0514C228.819 46.6008 232.662 51.4966 238.566 51.4966Z" fill="white"/>
<path d="M63.8198 34.8439C68.0601 30.7905 68.0601 24.2186 63.8198 20.1652L45.9054 3.04006C41.6652 -1.01335 34.7904 -1.01335 30.5502 3.04006L3.18017 29.2042C-1.06848 33.2657 -1.05881 39.8535 3.20176 43.9035L21.1665 60.9805C25.4102 65.0145 32.2683 65.0053 36.5001 60.9599L63.8198 34.8439Z" fill="url(#paint0_linear_4_36)"/>
<path d="M79.8673 34.8439C84.0442 30.7905 84.0442 24.2186 79.8673 20.1652L62.2203 3.04006C58.0433 -1.01335 51.2712 -1.01335 47.0942 3.04006L20.1327 29.2042C15.9475 33.2657 15.957 39.8535 20.154 43.9035L37.8506 60.9805C42.0309 65.0145 48.7867 65.0053 52.9554 60.9599L79.8673 34.8439Z" fill="url(#paint1_linear_4_36)" fill-opacity="0.8"/>
<defs>
<linearGradient id="paint0_linear_4_36" x1="66.7514" y1="29.375" x2="14.6853" y2="49.9462" gradientUnits="userSpaceOnUse">
<stop stop-color="#3392FF"/>
<stop offset="1" stop-color="#7B4CFE"/>
</linearGradient>
<linearGradient id="paint1_linear_4_36" x1="82.7551" y1="29.375" x2="31.2601" y2="49.4169" gradientUnits="userSpaceOnUse">
<stop stop-color="#3392FF"/>
<stop offset="1" stop-color="#7B4CFE"/>
</linearGradient>
</defs>
</svg>
